<svg width="34" height="34" viewBox="0 0 34 34" fill="none" xmlns="http://www.w3.org/2000/svg">
<path d="M16.5 14.0251L29.7626 0.762583C30.446 0.0791654 31.554 0.0791658 32.2375 0.762583C32.9209 1.446 32.9209 2.55404 32.2375 3.23746L18.9749 16.5L32.7375 30.2626C33.4209 30.946 33.4209 32.054 32.7375 32.7375C32.054 33.4209 30.946 33.4209 30.2626 32.7375L16.5 18.9749L3.23746 32.2375C2.55404 32.9209 1.446 32.9209 0.762583 32.2375C0.0791657 31.554 0.0791658 30.446 0.762583 29.7626L14.0251 16.5L1.26258 3.73746C0.579165 3.05404 0.579166 1.946 1.26258 1.26258C1.946 0.579166 3.05404 0.579166 3.73746 1.26258L16.5 14.0251Z" fill="#82BFF0"/>
</svg>
