<svg width="18" height="18" viewBox="0 0 18 18" fill="none" xmlns="http://www.w3.org/2000/svg">
<path fill-rule="evenodd" clip-rule="evenodd" d="M9 0C4.02972 0 0 4.02972 0 9C0 13.9701 4.02972 18 9 18C13.9713 18 18 13.9701 18 9C18 4.02972 13.9713 0 9 0ZM10.4027 12.6491H8.5404V14.156H6.90553V12.6491H5.86775V11.3696H6.90553V10.2323H5.86775V8.81068H6.90553V4.1904H9.54976C10.2701 4.1904 10.8624 4.28991 11.3268 4.48894C11.7912 4.68796 12.1584 4.94149 12.4285 5.24951C12.6987 5.55753 12.8835 5.8916 12.983 6.25175C13.0825 6.6119 13.1323 6.94835 13.1323 7.2611C13.1323 7.57386 13.0778 7.90794 12.9688 8.26335C12.8598 8.61876 12.6679 8.94336 12.393 9.23716C12.1182 9.53097 11.7509 9.77501 11.2912 9.9693C10.8316 10.1636 10.2511 10.2607 9.54976 10.2607H8.5404V11.3696H10.4027V12.6491ZM8.5404 8.81068H9.57819C9.77722 8.81068 9.98809 8.78935 10.2108 8.7467C10.4335 8.70405 10.642 8.62586 10.8363 8.51213C11.0306 8.3984 11.1894 8.23966 11.3126 8.03589C11.4358 7.83212 11.4974 7.56912 11.4974 7.24689C11.4974 6.91517 11.4429 6.64507 11.3339 6.43656C11.2249 6.22806 11.0804 6.06457 10.9003 5.9461C10.7202 5.82763 10.5188 5.74707 10.2961 5.70443C10.0734 5.66178 9.84356 5.64045 9.60662 5.64045H8.5404V8.81068Z" fill="white"/>
</svg>
