<svg width="14" height="20" viewBox="0 0 14 20" fill="none" xmlns="http://www.w3.org/2000/svg">
<path fill-rule="evenodd" clip-rule="evenodd" d="M10.5703 14.156C10.5488 14.3674 10.5244 14.6058 10.4296 14.7623C10.2843 15.0026 10.0184 15.1519 9.736 15.1519H4.26445C3.82157 15.1519 3.45986 14.7956 3.45443 14.3572C3.32261 13.0991 2.68497 12.5255 2.08931 11.9897C1.76842 11.7011 1.45971 11.4234 1.24882 11.0555C0.606417 9.93557 0 8.87727 0 6.93846C0 3.11249 3.14006 0 6.99992 0C10.8599 0 14 3.11249 14 6.93846C14 8.87727 13.3934 9.93557 12.7512 11.0561C12.5437 11.418 12.2282 11.6799 11.9004 11.952C11.3376 12.4191 10.7385 12.9164 10.5873 14.0015C10.5814 14.0458 10.576 14.0976 10.5707 14.1524L10.5703 14.156ZM7 20C7.9742 20 8.45948 19.4948 8.49725 18.8254H9.00897C9.58722 18.8254 10.0584 18.1695 10.0584 17.3631C10.0584 16.5566 9.58783 15.9004 9.00897 15.9004H4.99103C4.41278 15.9004 3.94159 16.5566 3.94159 17.3631C3.94159 18.1695 4.41278 18.8254 4.99103 18.8254H5.50277C5.54062 19.4942 6.04423 20 7 20Z" fill="#82BFF0"/>
</svg>
