<svg width="18" height="14" viewBox="0 0 18 14" fill="none" xmlns="http://www.w3.org/2000/svg">
<path fill-rule="evenodd" clip-rule="evenodd" d="M8.99991 0.25C4.81823 0.25 3.14443 2.49007 0.408453 6.15166L0.176007 6.46263C-0.058669 6.77754 -0.058669 7.21771 0.176007 7.53286L0.405225 7.83984C3.14311 11.5079 4.81659 13.75 8.99991 13.75C13.1814 13.75 14.8551 11.5101 17.5906 7.84939L17.8239 7.53737C18.0587 7.22223 18.0587 6.78229 17.8239 6.46714L17.5949 6.16042C14.8569 2.49194 13.1836 0.25 8.99991 0.25ZM9.30822 11.7533C6.45477 11.934 4.09818 9.56648 4.27774 6.68952C4.42496 4.31747 6.33499 2.39492 8.69159 2.24673C11.5453 2.06599 13.9016 4.43329 13.7223 7.31048C13.5704 9.67778 11.6603 11.6003 9.30822 11.7533ZM5.73633 6.78644C5.60643 8.77353 7.23774 10.4097 9.21226 10.2849C10.8378 10.1837 12.1617 8.85698 12.2682 7.20881C12.3981 5.22172 10.7668 3.58552 8.79227 3.71039C7.16097 3.81764 5.83674 5.14445 5.73633 6.78644Z" fill="#82BFF0"/>
</svg>
