<svg width="18" height="21" viewBox="0 0 18 21" fill="none" xmlns="http://www.w3.org/2000/svg">
<path fill-rule="evenodd" clip-rule="evenodd" d="M17.9784 5.68151L17.979 5.69783C18.0261 8.16455 18.0847 11.2344 17.049 14.024C16.4812 15.5537 15.6219 16.8836 14.4953 17.9767C13.2127 19.2211 11.5331 20.2096 9.50325 20.9149C9.43678 20.938 9.36759 20.9567 9.29761 20.9707C9.19907 20.9902 9.09957 21 9.00024 21C8.90091 21 8.80153 20.9902 8.70286 20.9707C8.63284 20.9567 8.56415 20.9381 8.49805 20.9153C6.46572 20.2113 4.78436 19.2232 3.50065 17.9786C2.37354 16.8858 1.51432 15.5563 0.946981 14.0269C-0.0848489 11.2457 -0.026142 8.18153 0.0211291 5.71945L0.0220786 5.68151C0.0312851 5.47832 0.0375604 5.26491 0.0411109 5.02907C0.0583679 3.87104 0.985005 2.91324 2.15052 2.84868C4.58083 2.71378 6.46089 1.92649 8.06728 0.370935L8.08099 0.357974C8.60514 -0.119325 9.3955 -0.119325 9.91949 0.357974L9.93319 0.370935C11.5396 1.92649 13.4196 2.71378 15.85 2.84852C17.0156 2.91324 17.9421 3.87104 17.9594 5.02891C17.9631 5.26635 17.9692 5.47979 17.9784 5.68151ZM8.22329 13.8211L12.7576 9.31638C13.1383 8.93821 13.1383 8.32509 12.7576 7.94717C12.377 7.56893 11.7598 7.56893 11.3794 7.94717L7.53393 11.7673L6.49026 10.7304C6.1096 10.3522 5.49252 10.3522 5.11206 10.7304C4.7314 11.1086 4.7314 11.7217 5.11206 12.0996L6.84483 13.8211C7.03519 14.0105 7.2846 14.1049 7.53393 14.1049C7.78334 14.1049 8.033 14.0102 8.22329 13.8211Z" fill="white"/>
</svg>
