<svg width="18" height="18" viewBox="0 0 18 18" fill="none" xmlns="http://www.w3.org/2000/svg">
<path fill-rule="evenodd" clip-rule="evenodd" d="M8.99985 0C4.02959 0 0 4.02959 0 8.99985C0 13.9702 4.02959 18 8.99985 18C13.9702 18 18 13.9702 18 8.99985C18 4.02959 13.9702 0 8.99985 0ZM12.8908 10.7117H9.07515C9.06225 10.7117 9.05025 10.7085 9.03735 10.7079C9.02475 10.7085 9.01275 10.7117 8.99985 10.7117C8.65589 10.7117 8.37726 10.4328 8.37726 10.0892V3.73514C8.37726 3.39118 8.65589 3.11255 8.99985 3.11255C9.34351 3.11255 9.62214 3.39118 9.62214 3.73514V9.46688H12.8905C13.2342 9.46688 13.5128 9.74544 13.5128 10.0892C13.5128 10.4328 13.2345 10.7117 12.8908 10.7117Z" fill="white"/>
</svg>
